<svg xmlns="http://www.w3.org/2000/svg" version="1.1" xmlns:xlink="http://www.w3.org/1999/xlink" xmlns:svgjs="http://svgjs.com/svgjs" width="1440" height="560" preserveAspectRatio="none" viewBox="0 0 1440 560"><g mask="url(&quot;#SvgjsMask1007&quot;)" fill="none"><path d="M766.11 583.59C917.96 558.6 998.82 188.59 1237.83 188.08 1476.83 187.57 1577.31 422.05 1709.54 428.88" stroke="rgba(174, 11, 217, 0.58)" stroke-width="2"></path><path d="M818.62 667.09C944.11 583.7 864.57 143.56 1097.12 132.62 1329.67 121.68 1511.5 255.09 1654.11 255.82" stroke="rgba(174, 11, 217, 0.58)" stroke-width="2"></path><path d="M546.65 563.2C663.61 538.33 627.64 234.68 893.16 233.52 1158.67 232.36 1410.67 345.16 1586.17 345.52" stroke="rgba(174, 11, 217, 0.58)" stroke-width="2"></path><path d="M247.06 612.56C376.87 603.75 468.39 356.06 699.32 355.08 930.25 354.1 925.45 425.08 1151.58 425.08 1377.71 425.08 1489.43 355.29 1603.84 355.08" stroke="rgba(174, 11, 217, 0.58)" stroke-width="2"></path><path d="M242.24 618.1C394.27 591.68 461.86 220.34 710.06 215.44 958.27 210.54 943.97 285.44 1177.89 285.44 1411.8 285.44 1527.45 215.63 1645.71 215.44" stroke="rgba(174, 11, 217, 0.58)" stroke-width="2"></path></g><defs><mask id="SvgjsMask1007"><rect width="1440" height="560" fill="#ffffff"></rect></mask></defs></svg>