<svg xmlns="http://www.w3.org/2000/svg" version="1.1" xmlns:xlink="http://www.w3.org/1999/xlink" xmlns:svgjs="http://svgjs.com/svgjs" width="1440" height="560" preserveAspectRatio="none" viewBox="0 0 1440 560"><g mask="url(&quot;#SvgjsMask1012&quot;)" fill="none"><path d="M723 453L722 67" stroke-width="10" stroke="url(#SvgjsLinearGradient1013)" stroke-linecap="round" class="Down"></path><path d="M990 198L989 511" stroke-width="8" stroke="url(#SvgjsLinearGradient1014)" stroke-linecap="round" class="Up"></path><path d="M983 373L982 11" stroke-width="6" stroke="url(#SvgjsLinearGradient1014)" stroke-linecap="round" class="Up"></path><path d="M1280 251L1279 609" stroke-width="10" stroke="url(#SvgjsLinearGradient1013)" stroke-linecap="round" class="Down"></path><path d="M707 47L706 -153" stroke-width="6" stroke="url(#SvgjsLinearGradient1014)" stroke-linecap="round" class="Up"></path><path d="M479 87L478 -148" stroke-width="8" stroke="url(#SvgjsLinearGradient1013)" stroke-linecap="round" class="Down"></path><path d="M1295 424L1294 572" stroke-width="6" stroke="url(#SvgjsLinearGradient1013)" stroke-linecap="round" class="Down"></path><path d="M76 548L75 885" stroke-width="6" stroke="url(#SvgjsLinearGradient1013)" stroke-linecap="round" class="Down"></path><path d="M386 298L385 -59" stroke-width="6" stroke="url(#SvgjsLinearGradient1013)" stroke-linecap="round" class="Down"></path><path d="M49 191L48 350" stroke-width="8" stroke="url(#SvgjsLinearGradient1013)" stroke-linecap="round" class="Down"></path><path d="M290 221L289 582" stroke-width="8" stroke="url(#SvgjsLinearGradient1013)" stroke-linecap="round" class="Down"></path><path d="M311 310L310 -23" stroke-width="6" stroke="url(#SvgjsLinearGradient1013)" stroke-linecap="round" class="Down"></path><path d="M987 512L986 258" stroke-width="8" stroke="url(#SvgjsLinearGradient1014)" stroke-linecap="round" class="Up"></path><path d="M576 541L575 276" stroke-width="10" stroke="url(#SvgjsLinearGradient1014)" stroke-linecap="round" class="Up"></path><path d="M1201 100L1200 -311" stroke-width="8" stroke="url(#SvgjsLinearGradient1014)" stroke-linecap="round" class="Up"></path><path d="M552 144L551 530" stroke-width="6" stroke="url(#SvgjsLinearGradient1013)" stroke-linecap="round" class="Down"></path><path d="M652 558L651 907" stroke-width="10" stroke="url(#SvgjsLinearGradient1013)" stroke-linecap="round" class="Down"></path><path d="M1059 468L1058 821" stroke-width="6" stroke="url(#SvgjsLinearGradient1014)" stroke-linecap="round" class="Up"></path><path d="M382 173L381 -177" stroke-width="6" stroke="url(#SvgjsLinearGradient1014)" stroke-linecap="round" class="Up"></path><path d="M917 335L916 131" stroke-width="10" stroke="url(#SvgjsLinearGradient1013)" stroke-linecap="round" class="Down"></path><path d="M404 537L403 846" stroke-width="8" stroke="url(#SvgjsLinearGradient1013)" stroke-linecap="round" class="Down"></path><path d="M171 490L170 248" stroke-width="10" stroke="url(#SvgjsLinearGradient1013)" stroke-linecap="round" class="Down"></path><path d="M859 90L858 507" stroke-width="6" stroke="url(#SvgjsLinearGradient1013)" stroke-linecap="round" class="Down"></path><path d="M446 322L445 -93" stroke-width="8" stroke="url(#SvgjsLinearGradient1014)" stroke-linecap="round" class="Up"></path><path d="M1274 98L1273 307" stroke-width="6" stroke="url(#SvgjsLinearGradient1014)" stroke-linecap="round" class="Up"></path><path d="M361 72L360 -110" stroke-width="8" stroke="url(#SvgjsLinearGradient1014)" stroke-linecap="round" class="Up"></path><path d="M1135 190L1134 -26" stroke-width="10" stroke="url(#SvgjsLinearGradient1014)" stroke-linecap="round" class="Up"></path><path d="M1368 54L1367 -330" stroke-width="6" stroke="url(#SvgjsLinearGradient1013)" stroke-linecap="round" class="Down"></path><path d="M1270 516L1269 907" stroke-width="8" stroke="url(#SvgjsLinearGradient1014)" stroke-linecap="round" class="Up"></path><path d="M978 218L977 33" stroke-width="10" stroke="url(#SvgjsLinearGradient1013)" stroke-linecap="round" class="Down"></path><path d="M466 172L465 16" stroke-width="6" stroke="url(#SvgjsLinearGradient1013)" stroke-linecap="round" class="Down"></path><path d="M871 98L870 321" stroke-width="10" stroke="url(#SvgjsLinearGradient1014)" stroke-linecap="round" class="Up"></path><path d="M340 334L339 589" stroke-width="10" stroke="url(#SvgjsLinearGradient1014)" stroke-linecap="round" class="Up"></path><path d="M706 45L705 -346" stroke-width="10" stroke="url(#SvgjsLinearGradient1013)" stroke-linecap="round" class="Down"></path><path d="M315 517L314 726" stroke-width="10" stroke="url(#SvgjsLinearGradient1013)" stroke-linecap="round" class="Down"></path><path d="M1095 199L1094 438" stroke-width="10" stroke="url(#SvgjsLinearGradient1014)" stroke-linecap="round" class="Up"></path></g><defs><mask id="SvgjsMask1012"><rect width="1440" height="560" fill="#ffffff"></rect></mask><linearGradient x1="0%" y1="0%" x2="0%" y2="100%" id="SvgjsLinearGradient1013"><stop stop-color="rgba(255, 255, 255, 0)" offset="0"></stop><stop stop-color="rgba(255, 255, 255, 1)" offset="1"></stop></linearGradient><linearGradient x1="0%" y1="100%" x2="0%" y2="0%" id="SvgjsLinearGradient1014"><stop stop-color="rgba(255, 255, 255, 0)" offset="0"></stop><stop stop-color="rgba(255, 255, 255, 1)" offset="1"></stop></linearGradient></defs></svg>